<?xml version="1.0" encoding="UTF-8"?>
<!DOCTYPE svg PUBLIC "-//W3C//DTD SVG 1.1//EN"
    "http://www.w3.org/Graphics/SVG/1.1/DTD/svg11.dtd"><svg xmlns="http://www.w3.org/2000/svg" height="1753.8462" stroke-opacity="1" viewBox="0 0 1000 1754" font-size="1" width="1000.0000" xmlns:xlink="http://www.w3.org/1999/xlink" stroke="rgb(0,0,0)" version="1.1"><defs></defs><defs></defs><g stroke-linejoin="miter" stroke-opacity="1.0" fill-opacity="0.0" stroke="rgb(0,0,0)" stroke-width="5.297314268715655" fill="rgb(0,0,0)" stroke-linecap="butt" stroke-miterlimit="10.0"><path d="M 395.1049,247.5524 l 209.7902,419.5804 "/></g><defs></defs><g stroke-linejoin="miter" stroke-opacity="1.0" fill-opacity="0.0" stroke="rgb(0,0,0)" stroke-width="5.297314268715655" fill="rgb(0,0,0)" stroke-linecap="butt" stroke-miterlimit="10.0"><path d="M 395.1049,247.5524 l -209.7902,419.5804 "/></g><defs></defs><g stroke-linejoin="miter" stroke-opacity="1.0" fill-opacity="0.0" stroke="rgb(0,0,0)" stroke-width="5.297314268715655" fill="rgb(0,0,0)" stroke-linecap="butt" stroke-miterlimit="10.0"><path d="M 604.8951,667.1329 l 209.7902,419.5804 "/></g><defs></defs><g stroke-linejoin="miter" stroke-opacity="1.0" fill-opacity="0.0" stroke="rgb(0,0,0)" stroke-width="5.297314268715655" fill="rgb(0,0,0)" stroke-linecap="butt" stroke-miterlimit="10.0"><path d="M 604.8951,667.1329 l -209.7902,419.5804 "/></g><defs></defs><g stroke-linejoin="miter" stroke-opacity="1.0" fill-opacity="1.0" stroke="rgb(0,0,0)" stroke-width="2.0" fill="rgb(128,128,128)" stroke-linecap="butt" stroke-miterlimit="10.0"><path d="M 954.5455,1226.5734 v -279.7203 c 0.0000,-15.4485 -12.5235,-27.9720 -27.9720 -27.9720h -223.7762 c -15.4485,-0.0000 -27.9720,12.5235 -27.9720 27.9720v 279.7203 c -0.0000,15.4485 12.5235,27.9720 27.9720 27.9720h 223.7762 c 15.4485,0.0000 27.9720,-12.5235 27.9720 -27.9720Z"/></g><defs></defs><g stroke-linejoin="miter" stroke-opacity="1.0" fill-opacity="1.0" font-size="279.72027972027973px" stroke="rgb(0,0,0)" stroke-width="5.297314268715655" fill="rgb(0,0,0)" stroke-linecap="butt" stroke-miterlimit="10.0"><text dominant-baseline="middle" transform="matrix(1.0000,0.0000,0.0000,1.0000,814.6853,1086.7133)" stroke="none" text-anchor="middle">+</text></g><defs></defs><g stroke-linejoin="miter" stroke-opacity="1.0" fill-opacity="0.0" stroke="rgb(0,0,0)" stroke-width="5.297314268715655" fill="rgb(0,0,0)" stroke-linecap="butt" stroke-miterlimit="10.0"><path d="M 395.1049,1086.7133 v 419.5804 "/></g><defs></defs><g stroke-linejoin="miter" stroke-opacity="1.0" fill-opacity="1.0" stroke="rgb(0,0,0)" stroke-width="2.0" fill="rgb(128,128,128)" stroke-linecap="butt" stroke-miterlimit="10.0"><path d="M 534.9650,1646.1538 v -279.7203 c 0.0000,-15.4485 -12.5235,-27.9720 -27.9720 -27.9720h -223.7762 c -15.4485,-0.0000 -27.9720,12.5235 -27.9720 27.9720v 279.7203 c -0.0000,15.4485 12.5235,27.9720 27.9720 27.9720h 223.7762 c 15.4485,0.0000 27.9720,-12.5235 27.9720 -27.9720Z"/></g><defs></defs><g stroke-linejoin="miter" stroke-opacity="1.0" fill-opacity="1.0" font-size="279.72027972027973px" stroke="rgb(0,0,0)" stroke-width="5.297314268715655" fill="rgb(0,0,0)" stroke-linecap="butt" stroke-miterlimit="10.0"><text dominant-baseline="middle" transform="matrix(1.0000,0.0000,0.0000,1.0000,395.1049,1506.2937)" stroke="none" text-anchor="middle">2</text></g><defs></defs><g stroke-linejoin="miter" stroke-opacity="1.0" fill-opacity="1.0" stroke="rgb(0,0,0)" stroke-width="2.0" fill="rgb(128,128,128)" stroke-linecap="butt" stroke-miterlimit="10.0"><path d="M 534.9650,1226.5734 v -279.7203 c 0.0000,-15.4485 -12.5235,-27.9720 -27.9720 -27.9720h -223.7762 c -15.4485,-0.0000 -27.9720,12.5235 -27.9720 27.9720v 279.7203 c -0.0000,15.4485 12.5235,27.9720 27.9720 27.9720h 223.7762 c 15.4485,0.0000 27.9720,-12.5235 27.9720 -27.9720Z"/></g><defs></defs><g stroke-linejoin="miter" stroke-opacity="1.0" fill-opacity="1.0" font-size="279.72027972027973px" stroke="rgb(0,0,0)" stroke-width="5.297314268715655" fill="rgb(0,0,0)" stroke-linecap="butt" stroke-miterlimit="10.0"><text dominant-baseline="middle" transform="matrix(1.0000,0.0000,0.0000,1.0000,395.1049,1086.7133)" stroke="none" text-anchor="middle">A</text></g><defs></defs><g stroke-linejoin="miter" stroke-opacity="1.0" fill-opacity="1.0" stroke="rgb(0,0,0)" stroke-width="2.0" fill="rgb(128,128,128)" stroke-linecap="butt" stroke-miterlimit="10.0"><path d="M 744.7552,806.9930 v -279.7203 c 0.0000,-15.4485 -12.5235,-27.9720 -27.9720 -27.9720h -223.7762 c -15.4485,-0.0000 -27.9720,12.5235 -27.9720 27.9720v 279.7203 c -0.0000,15.4485 12.5235,27.9720 27.9720 27.9720h 223.7762 c 15.4485,0.0000 27.9720,-12.5235 27.9720 -27.9720Z"/></g><defs></defs><g stroke-linejoin="miter" stroke-opacity="1.0" fill-opacity="1.0" font-size="279.72027972027973px" stroke="rgb(0,0,0)" stroke-width="5.297314268715655" fill="rgb(0,0,0)" stroke-linecap="butt" stroke-miterlimit="10.0"><text dominant-baseline="middle" transform="matrix(1.0000,0.0000,0.0000,1.0000,604.8951,667.1329)" stroke="none" text-anchor="middle">B</text></g><defs></defs><g stroke-linejoin="miter" stroke-opacity="1.0" fill-opacity="1.0" stroke="rgb(0,0,0)" stroke-width="2.0" fill="rgb(128,128,128)" stroke-linecap="butt" stroke-miterlimit="10.0"><path d="M 325.1748,806.9930 v -279.7203 c 0.0000,-15.4485 -12.5235,-27.9720 -27.9720 -27.9720h -223.7762 c -15.4485,-0.0000 -27.9720,12.5235 -27.9720 27.9720v 279.7203 c -0.0000,15.4485 12.5235,27.9720 27.9720 27.9720h 223.7762 c 15.4485,0.0000 27.9720,-12.5235 27.9720 -27.9720Z"/></g><defs></defs><g stroke-linejoin="miter" stroke-opacity="1.0" fill-opacity="1.0" font-size="279.72027972027973px" stroke="rgb(0,0,0)" stroke-width="5.297314268715655" fill="rgb(0,0,0)" stroke-linecap="butt" stroke-miterlimit="10.0"><text dominant-baseline="middle" transform="matrix(1.0000,0.0000,0.0000,1.0000,185.3147,667.1329)" stroke="none" text-anchor="middle">1</text></g><defs></defs><g stroke-linejoin="miter" stroke-opacity="1.0" fill-opacity="1.0" stroke="rgb(0,0,0)" stroke-width="2.0" fill="rgb(128,128,128)" stroke-linecap="butt" stroke-miterlimit="10.0"><path d="M 534.9650,387.4126 v -279.7203 c 0.0000,-15.4485 -12.5235,-27.9720 -27.9720 -27.9720h -223.7762 c -15.4485,-0.0000 -27.9720,12.5235 -27.9720 27.9720v 279.7203 c -0.0000,15.4485 12.5235,27.9720 27.9720 27.9720h 223.7762 c 15.4485,0.0000 27.9720,-12.5235 27.9720 -27.9720Z"/></g><defs></defs><g stroke-linejoin="miter" stroke-opacity="1.0" fill-opacity="1.0" font-size="279.72027972027973px" stroke="rgb(0,0,0)" stroke-width="5.297314268715655" fill="rgb(0,0,0)" stroke-linecap="butt" stroke-miterlimit="10.0"><text dominant-baseline="middle" transform="matrix(1.0000,0.0000,0.0000,1.0000,395.1049,247.5524)" stroke="none" text-anchor="middle">A</text></g></svg>