<?xml version="1.0" encoding="UTF-8"?>
<!DOCTYPE svg PUBLIC "-//W3C//DTD SVG 1.1//EN"
    "http://www.w3.org/Graphics/SVG/1.1/DTD/svg11.dtd"><svg xmlns="http://www.w3.org/2000/svg" height="440.0000" stroke-opacity="1" viewBox="0 0 500 440" font-size="1" width="500.0000" xmlns:xlink="http://www.w3.org/1999/xlink" stroke="rgb(0,0,0)" version="1.1"><defs></defs><defs></defs><g stroke-linejoin="miter" stroke-opacity="1.0" fill-opacity="0.0" stroke="rgb(0,0,0)" stroke-width="1.876166303929372" fill="rgb(0,0,0)" stroke-linecap="butt" stroke-miterlimit="10.0"><path d="M 98.4848,38.1818 l 45.4545,45.4545 "/></g><defs></defs><g stroke-linejoin="miter" stroke-opacity="1.0" fill-opacity="0.0" stroke="rgb(0,0,0)" stroke-width="1.876166303929372" fill="rgb(0,0,0)" stroke-linecap="butt" stroke-miterlimit="10.0"><path d="M 98.4848,38.1818 l -45.4545,45.4545 "/></g><defs></defs><g stroke-linejoin="miter" stroke-opacity="1.0" fill-opacity="0.0" stroke="rgb(0,0,0)" stroke-width="1.876166303929372" fill="rgb(0,0,0)" stroke-linecap="butt" stroke-miterlimit="10.0"><path d="M 143.9394,83.6364 l 90.9091,45.4545 "/></g><defs></defs><g stroke-linejoin="miter" stroke-opacity="1.0" fill-opacity="0.0" stroke="rgb(0,0,0)" stroke-width="1.876166303929372" fill="rgb(0,0,0)" stroke-linecap="butt" stroke-miterlimit="10.0"><path d="M 143.9394,83.6364 v 45.4545 "/></g><defs></defs><g stroke-linejoin="miter" stroke-opacity="1.0" fill-opacity="0.0" stroke="rgb(0,0,0)" stroke-width="1.876166303929372" fill="rgb(0,0,0)" stroke-linecap="butt" stroke-miterlimit="10.0"><path d="M 143.9394,83.6364 l -90.9091,45.4545 "/></g><defs></defs><g stroke-linejoin="miter" stroke-opacity="1.0" fill-opacity="0.0" stroke="rgb(0,0,0)" stroke-width="1.876166303929372" fill="rgb(0,0,0)" stroke-linecap="butt" stroke-miterlimit="10.0"><path d="M 234.8485,129.0909 l 45.4545,45.4545 "/></g><defs></defs><g stroke-linejoin="miter" stroke-opacity="1.0" fill-opacity="0.0" stroke="rgb(0,0,0)" stroke-width="1.876166303929372" fill="rgb(0,0,0)" stroke-linecap="butt" stroke-miterlimit="10.0"><path d="M 234.8485,129.0909 l -45.4545,45.4545 "/></g><defs></defs><g stroke-linejoin="miter" stroke-opacity="1.0" fill-opacity="1.0" stroke="rgb(0,0,0)" stroke-width="2.0" fill="rgb(128,128,128)" stroke-linecap="butt" stroke-miterlimit="10.0"><path d="M 295.4545,189.6970 v -30.3030 c 0.0000,-1.6736 -1.3567,-3.0303 -3.0303 -3.0303h -24.2424 c -1.6736,-0.0000 -3.0303,1.3567 -3.0303 3.0303v 30.3030 c -0.0000,1.6736 1.3567,3.0303 3.0303 3.0303h 24.2424 c 1.6736,0.0000 3.0303,-1.3567 3.0303 -3.0303Z"/></g><defs></defs><g stroke-linejoin="miter" stroke-opacity="1.0" fill-opacity="1.0" font-size="30.303030303030305px" stroke="rgb(0,0,0)" stroke-width="1.876166303929372" fill="rgb(0,0,0)" stroke-linecap="butt" stroke-miterlimit="10.0"><text dominant-baseline="middle" transform="matrix(1.0000,0.0000,0.0000,1.0000,280.3030,174.5455)" stroke="none" text-anchor="middle">-</text></g><defs></defs><g stroke-linejoin="miter" stroke-opacity="1.0" fill-opacity="0.0" stroke="rgb(0,0,0)" stroke-width="1.876166303929372" fill="rgb(0,0,0)" stroke-linecap="butt" stroke-miterlimit="10.0"><path d="M 189.3939,174.5455 l 45.4545,45.4545 "/></g><defs></defs><g stroke-linejoin="miter" stroke-opacity="1.0" fill-opacity="0.0" stroke="rgb(0,0,0)" stroke-width="1.876166303929372" fill="rgb(0,0,0)" stroke-linecap="butt" stroke-miterlimit="10.0"><path d="M 189.3939,174.5455 l -45.4545,45.4545 "/></g><defs></defs><g stroke-linejoin="miter" stroke-opacity="1.0" fill-opacity="0.0" stroke="rgb(0,0,0)" stroke-width="1.876166303929372" fill="rgb(0,0,0)" stroke-linecap="butt" stroke-miterlimit="10.0"><path d="M 234.8485,220.0000 l 90.9091,45.4545 "/></g><defs></defs><g stroke-linejoin="miter" stroke-opacity="1.0" fill-opacity="0.0" stroke="rgb(0,0,0)" stroke-width="1.876166303929372" fill="rgb(0,0,0)" stroke-linecap="butt" stroke-miterlimit="10.0"><path d="M 234.8485,220.0000 v 45.4545 "/></g><defs></defs><g stroke-linejoin="miter" stroke-opacity="1.0" fill-opacity="0.0" stroke="rgb(0,0,0)" stroke-width="1.876166303929372" fill="rgb(0,0,0)" stroke-linecap="butt" stroke-miterlimit="10.0"><path d="M 234.8485,220.0000 l -90.9091,45.4545 "/></g><defs></defs><g stroke-linejoin="miter" stroke-opacity="1.0" fill-opacity="0.0" stroke="rgb(0,0,0)" stroke-width="1.876166303929372" fill="rgb(0,0,0)" stroke-linecap="butt" stroke-miterlimit="10.0"><path d="M 325.7576,265.4545 l 90.9091,45.4545 "/></g><defs></defs><g stroke-linejoin="miter" stroke-opacity="1.0" fill-opacity="0.0" stroke="rgb(0,0,0)" stroke-width="1.876166303929372" fill="rgb(0,0,0)" stroke-linecap="butt" stroke-miterlimit="10.0"><path d="M 325.7576,265.4545 v 45.4545 "/></g><defs></defs><g stroke-linejoin="miter" stroke-opacity="1.0" fill-opacity="0.0" stroke="rgb(0,0,0)" stroke-width="1.876166303929372" fill="rgb(0,0,0)" stroke-linecap="butt" stroke-miterlimit="10.0"><path d="M 325.7576,265.4545 l -90.9091,45.4545 "/></g><defs></defs><g stroke-linejoin="miter" stroke-opacity="1.0" fill-opacity="0.0" stroke="rgb(0,0,0)" stroke-width="1.876166303929372" fill="rgb(0,0,0)" stroke-linecap="butt" stroke-miterlimit="10.0"><path d="M 416.6667,310.9091 l 45.4545,45.4545 "/></g><defs></defs><g stroke-linejoin="miter" stroke-opacity="1.0" fill-opacity="0.0" stroke="rgb(0,0,0)" stroke-width="1.876166303929372" fill="rgb(0,0,0)" stroke-linecap="butt" stroke-miterlimit="10.0"><path d="M 416.6667,310.9091 l -45.4545,45.4545 "/></g><defs></defs><g stroke-linejoin="miter" stroke-opacity="1.0" fill-opacity="1.0" stroke="rgb(0,0,0)" stroke-width="2.0" fill="rgb(128,128,128)" stroke-linecap="butt" stroke-miterlimit="10.0"><path d="M 477.2727,371.5152 v -30.3030 c 0.0000,-1.6736 -1.3567,-3.0303 -3.0303 -3.0303h -24.2424 c -1.6736,-0.0000 -3.0303,1.3567 -3.0303 3.0303v 30.3030 c -0.0000,1.6736 1.3567,3.0303 3.0303 3.0303h 24.2424 c 1.6736,0.0000 3.0303,-1.3567 3.0303 -3.0303Z"/></g><defs></defs><g stroke-linejoin="miter" stroke-opacity="1.0" fill-opacity="1.0" font-size="30.303030303030305px" stroke="rgb(0,0,0)" stroke-width="1.876166303929372" fill="rgb(0,0,0)" stroke-linecap="butt" stroke-miterlimit="10.0"><text dominant-baseline="middle" transform="matrix(1.0000,0.0000,0.0000,1.0000,462.1212,356.3636)" stroke="none" text-anchor="middle">+</text></g><defs></defs><g stroke-linejoin="miter" stroke-opacity="1.0" fill-opacity="0.0" stroke="rgb(0,0,0)" stroke-width="1.876166303929372" fill="rgb(0,0,0)" stroke-linecap="butt" stroke-miterlimit="10.0"><path d="M 371.2121,356.3636 v 45.4545 "/></g><defs></defs><g stroke-linejoin="miter" stroke-opacity="1.0" fill-opacity="1.0" stroke="rgb(0,0,0)" stroke-width="2.0" fill="rgb(128,128,128)" stroke-linecap="butt" stroke-miterlimit="10.0"><path d="M 416.6667,416.9697 v -30.3030 c 0.0000,-1.6736 -1.3567,-3.0303 -3.0303 -3.0303h -84.8485 c -1.6736,-0.0000 -3.0303,1.3567 -3.0303 3.0303v 30.3030 c -0.0000,1.6736 1.3567,3.0303 3.0303 3.0303h 84.8485 c 1.6736,0.0000 3.0303,-1.3567 3.0303 -3.0303Z"/></g><defs></defs><g stroke-linejoin="miter" stroke-opacity="1.0" fill-opacity="1.0" font-size="30.303030303030305px" stroke="rgb(0,0,0)" stroke-width="1.876166303929372" fill="rgb(0,0,0)" stroke-linecap="butt" stroke-miterlimit="10.0"><text dominant-baseline="middle" transform="matrix(1.0000,0.0000,0.0000,1.0000,371.2121,401.8182)" stroke="none" text-anchor="middle">666</text></g><defs></defs><g stroke-linejoin="miter" stroke-opacity="1.0" fill-opacity="1.0" stroke="rgb(0,0,0)" stroke-width="2.0" fill="rgb(128,128,128)" stroke-linecap="butt" stroke-miterlimit="10.0"><path d="M 386.3636,371.5152 v -30.3030 c 0.0000,-1.6736 -1.3567,-3.0303 -3.0303 -3.0303h -24.2424 c -1.6736,-0.0000 -3.0303,1.3567 -3.0303 3.0303v 30.3030 c -0.0000,1.6736 1.3567,3.0303 3.0303 3.0303h 24.2424 c 1.6736,0.0000 3.0303,-1.3567 3.0303 -3.0303Z"/></g><defs></defs><g stroke-linejoin="miter" stroke-opacity="1.0" fill-opacity="1.0" font-size="30.303030303030305px" stroke="rgb(0,0,0)" stroke-width="1.876166303929372" fill="rgb(0,0,0)" stroke-linecap="butt" stroke-miterlimit="10.0"><text dominant-baseline="middle" transform="matrix(1.0000,0.0000,0.0000,1.0000,371.2121,356.3636)" stroke="none" text-anchor="middle">A</text></g><defs></defs><g stroke-linejoin="miter" stroke-opacity="1.0" fill-opacity="1.0" stroke="rgb(0,0,0)" stroke-width="2.0" fill="rgb(128,128,128)" stroke-linecap="butt" stroke-miterlimit="10.0"><path d="M 431.8182,326.0606 v -30.3030 c 0.0000,-1.6736 -1.3567,-3.0303 -3.0303 -3.0303h -24.2424 c -1.6736,-0.0000 -3.0303,1.3567 -3.0303 3.0303v 30.3030 c -0.0000,1.6736 1.3567,3.0303 3.0303 3.0303h 24.2424 c 1.6736,0.0000 3.0303,-1.3567 3.0303 -3.0303Z"/></g><defs></defs><g stroke-linejoin="miter" stroke-opacity="1.0" fill-opacity="1.0" font-size="30.303030303030305px" stroke="rgb(0,0,0)" stroke-width="1.876166303929372" fill="rgb(0,0,0)" stroke-linecap="butt" stroke-miterlimit="10.0"><text dominant-baseline="middle" transform="matrix(1.0000,0.0000,0.0000,1.0000,416.6667,310.9091)" stroke="none" text-anchor="middle">B</text></g><defs></defs><g stroke-linejoin="miter" stroke-opacity="1.0" fill-opacity="1.0" stroke="rgb(0,0,0)" stroke-width="2.0" fill="rgb(128,128,128)" stroke-linecap="butt" stroke-miterlimit="10.0"><path d="M 340.9091,326.0606 v -30.3030 c 0.0000,-1.6736 -1.3567,-3.0303 -3.0303 -3.0303h -24.2424 c -1.6736,-0.0000 -3.0303,1.3567 -3.0303 3.0303v 30.3030 c -0.0000,1.6736 1.3567,3.0303 3.0303 3.0303h 24.2424 c 1.6736,0.0000 3.0303,-1.3567 3.0303 -3.0303Z"/></g><defs></defs><g stroke-linejoin="miter" stroke-opacity="1.0" fill-opacity="1.0" font-size="30.303030303030305px" stroke="rgb(0,0,0)" stroke-width="1.876166303929372" fill="rgb(0,0,0)" stroke-linecap="butt" stroke-miterlimit="10.0"><text dominant-baseline="middle" transform="matrix(1.0000,0.0000,0.0000,1.0000,325.7576,310.9091)" stroke="none" text-anchor="middle">*</text></g><defs></defs><g stroke-linejoin="miter" stroke-opacity="1.0" fill-opacity="0.0" stroke="rgb(0,0,0)" stroke-width="1.876166303929372" fill="rgb(0,0,0)" stroke-linecap="butt" stroke-miterlimit="10.0"><path d="M 234.8485,310.9091 v 45.4545 "/></g><defs></defs><g stroke-linejoin="miter" stroke-opacity="1.0" fill-opacity="1.0" stroke="rgb(0,0,0)" stroke-width="2.0" fill="rgb(128,128,128)" stroke-linecap="butt" stroke-miterlimit="10.0"><path d="M 265.1515,371.5152 v -30.3030 c 0.0000,-1.6736 -1.3567,-3.0303 -3.0303 -3.0303h -54.5455 c -1.6736,-0.0000 -3.0303,1.3567 -3.0303 3.0303v 30.3030 c -0.0000,1.6736 1.3567,3.0303 3.0303 3.0303h 54.5455 c 1.6736,0.0000 3.0303,-1.3567 3.0303 -3.0303Z"/></g><defs></defs><g stroke-linejoin="miter" stroke-opacity="1.0" fill-opacity="1.0" font-size="30.303030303030305px" stroke="rgb(0,0,0)" stroke-width="1.876166303929372" fill="rgb(0,0,0)" stroke-linecap="butt" stroke-miterlimit="10.0"><text dominant-baseline="middle" transform="matrix(1.0000,0.0000,0.0000,1.0000,234.8485,356.3636)" stroke="none" text-anchor="middle">55</text></g><defs></defs><g stroke-linejoin="miter" stroke-opacity="1.0" fill-opacity="1.0" stroke="rgb(0,0,0)" stroke-width="2.0" fill="rgb(128,128,128)" stroke-linecap="butt" stroke-miterlimit="10.0"><path d="M 250.0000,326.0606 v -30.3030 c 0.0000,-1.6736 -1.3567,-3.0303 -3.0303 -3.0303h -24.2424 c -1.6736,-0.0000 -3.0303,1.3567 -3.0303 3.0303v 30.3030 c -0.0000,1.6736 1.3567,3.0303 3.0303 3.0303h 24.2424 c 1.6736,0.0000 3.0303,-1.3567 3.0303 -3.0303Z"/></g><defs></defs><g stroke-linejoin="miter" stroke-opacity="1.0" fill-opacity="1.0" font-size="30.303030303030305px" stroke="rgb(0,0,0)" stroke-width="1.876166303929372" fill="rgb(0,0,0)" stroke-linecap="butt" stroke-miterlimit="10.0"><text dominant-baseline="middle" transform="matrix(1.0000,0.0000,0.0000,1.0000,234.8485,310.9091)" stroke="none" text-anchor="middle">A</text></g><defs></defs><g stroke-linejoin="miter" stroke-opacity="1.0" fill-opacity="1.0" stroke="rgb(0,0,0)" stroke-width="2.0" fill="rgb(128,128,128)" stroke-linecap="butt" stroke-miterlimit="10.0"><path d="M 340.9091,280.6061 v -30.3030 c 0.0000,-1.6736 -1.3567,-3.0303 -3.0303 -3.0303h -24.2424 c -1.6736,-0.0000 -3.0303,1.3567 -3.0303 3.0303v 30.3030 c -0.0000,1.6736 1.3567,3.0303 3.0303 3.0303h 24.2424 c 1.6736,0.0000 3.0303,-1.3567 3.0303 -3.0303Z"/></g><defs></defs><g stroke-linejoin="miter" stroke-opacity="1.0" fill-opacity="1.0" font-size="30.303030303030305px" stroke="rgb(0,0,0)" stroke-width="1.876166303929372" fill="rgb(0,0,0)" stroke-linecap="butt" stroke-miterlimit="10.0"><text dominant-baseline="middle" transform="matrix(1.0000,0.0000,0.0000,1.0000,325.7576,265.4545)" stroke="none" text-anchor="middle">B</text></g><defs></defs><g stroke-linejoin="miter" stroke-opacity="1.0" fill-opacity="1.0" stroke="rgb(0,0,0)" stroke-width="2.0" fill="rgb(128,128,128)" stroke-linecap="butt" stroke-miterlimit="10.0"><path d="M 250.0000,280.6061 v -30.3030 c 0.0000,-1.6736 -1.3567,-3.0303 -3.0303 -3.0303h -24.2424 c -1.6736,-0.0000 -3.0303,1.3567 -3.0303 3.0303v 30.3030 c -0.0000,1.6736 1.3567,3.0303 3.0303 3.0303h 24.2424 c 1.6736,0.0000 3.0303,-1.3567 3.0303 -3.0303Z"/></g><defs></defs><g stroke-linejoin="miter" stroke-opacity="1.0" fill-opacity="1.0" font-size="30.303030303030305px" stroke="rgb(0,0,0)" stroke-width="1.876166303929372" fill="rgb(0,0,0)" stroke-linecap="butt" stroke-miterlimit="10.0"><text dominant-baseline="middle" transform="matrix(1.0000,0.0000,0.0000,1.0000,234.8485,265.4545)" stroke="none" text-anchor="middle">-</text></g><defs></defs><g stroke-linejoin="miter" stroke-opacity="1.0" fill-opacity="0.0" stroke="rgb(0,0,0)" stroke-width="1.876166303929372" fill="rgb(0,0,0)" stroke-linecap="butt" stroke-miterlimit="10.0"><path d="M 143.9394,265.4545 v 45.4545 "/></g><defs></defs><g stroke-linejoin="miter" stroke-opacity="1.0" fill-opacity="1.0" stroke="rgb(0,0,0)" stroke-width="2.0" fill="rgb(128,128,128)" stroke-linecap="butt" stroke-miterlimit="10.0"><path d="M 189.3939,326.0606 v -30.3030 c 0.0000,-1.6736 -1.3567,-3.0303 -3.0303 -3.0303h -84.8485 c -1.6736,-0.0000 -3.0303,1.3567 -3.0303 3.0303v 30.3030 c -0.0000,1.6736 1.3567,3.0303 3.0303 3.0303h 84.8485 c 1.6736,0.0000 3.0303,-1.3567 3.0303 -3.0303Z"/></g><defs></defs><g stroke-linejoin="miter" stroke-opacity="1.0" fill-opacity="1.0" font-size="30.303030303030305px" stroke="rgb(0,0,0)" stroke-width="1.876166303929372" fill="rgb(0,0,0)" stroke-linecap="butt" stroke-miterlimit="10.0"><text dominant-baseline="middle" transform="matrix(1.0000,0.0000,0.0000,1.0000,143.9394,310.9091)" stroke="none" text-anchor="middle">444</text></g><defs></defs><g stroke-linejoin="miter" stroke-opacity="1.0" fill-opacity="1.0" stroke="rgb(0,0,0)" stroke-width="2.0" fill="rgb(128,128,128)" stroke-linecap="butt" stroke-miterlimit="10.0"><path d="M 159.0909,280.6061 v -30.3030 c 0.0000,-1.6736 -1.3567,-3.0303 -3.0303 -3.0303h -24.2424 c -1.6736,-0.0000 -3.0303,1.3567 -3.0303 3.0303v 30.3030 c -0.0000,1.6736 1.3567,3.0303 3.0303 3.0303h 24.2424 c 1.6736,0.0000 3.0303,-1.3567 3.0303 -3.0303Z"/></g><defs></defs><g stroke-linejoin="miter" stroke-opacity="1.0" fill-opacity="1.0" font-size="30.303030303030305px" stroke="rgb(0,0,0)" stroke-width="1.876166303929372" fill="rgb(0,0,0)" stroke-linecap="butt" stroke-miterlimit="10.0"><text dominant-baseline="middle" transform="matrix(1.0000,0.0000,0.0000,1.0000,143.9394,265.4545)" stroke="none" text-anchor="middle">A</text></g><defs></defs><g stroke-linejoin="miter" stroke-opacity="1.0" fill-opacity="1.0" stroke="rgb(0,0,0)" stroke-width="2.0" fill="rgb(128,128,128)" stroke-linecap="butt" stroke-miterlimit="10.0"><path d="M 250.0000,235.1515 v -30.3030 c 0.0000,-1.6736 -1.3567,-3.0303 -3.0303 -3.0303h -24.2424 c -1.6736,-0.0000 -3.0303,1.3567 -3.0303 3.0303v 30.3030 c -0.0000,1.6736 1.3567,3.0303 3.0303 3.0303h 24.2424 c 1.6736,0.0000 3.0303,-1.3567 3.0303 -3.0303Z"/></g><defs></defs><g stroke-linejoin="miter" stroke-opacity="1.0" fill-opacity="1.0" font-size="30.303030303030305px" stroke="rgb(0,0,0)" stroke-width="1.876166303929372" fill="rgb(0,0,0)" stroke-linecap="butt" stroke-miterlimit="10.0"><text dominant-baseline="middle" transform="matrix(1.0000,0.0000,0.0000,1.0000,234.8485,220.0000)" stroke="none" text-anchor="middle">B</text></g><defs></defs><g stroke-linejoin="miter" stroke-opacity="1.0" fill-opacity="1.0" stroke="rgb(0,0,0)" stroke-width="2.0" fill="rgb(128,128,128)" stroke-linecap="butt" stroke-miterlimit="10.0"><path d="M 189.3939,235.1515 v -30.3030 c 0.0000,-1.6736 -1.3567,-3.0303 -3.0303 -3.0303h -84.8485 c -1.6736,-0.0000 -3.0303,1.3567 -3.0303 3.0303v 30.3030 c -0.0000,1.6736 1.3567,3.0303 3.0303 3.0303h 84.8485 c 1.6736,0.0000 3.0303,-1.3567 3.0303 -3.0303Z"/></g><defs></defs><g stroke-linejoin="miter" stroke-opacity="1.0" fill-opacity="1.0" font-size="30.303030303030305px" stroke="rgb(0,0,0)" stroke-width="1.876166303929372" fill="rgb(0,0,0)" stroke-linecap="butt" stroke-miterlimit="10.0"><text dominant-baseline="middle" transform="matrix(1.0000,0.0000,0.0000,1.0000,143.9394,220.0000)" stroke="none" text-anchor="middle">333</text></g><defs></defs><g stroke-linejoin="miter" stroke-opacity="1.0" fill-opacity="1.0" stroke="rgb(0,0,0)" stroke-width="2.0" fill="rgb(128,128,128)" stroke-linecap="butt" stroke-miterlimit="10.0"><path d="M 204.5455,189.6970 v -30.3030 c 0.0000,-1.6736 -1.3567,-3.0303 -3.0303 -3.0303h -24.2424 c -1.6736,-0.0000 -3.0303,1.3567 -3.0303 3.0303v 30.3030 c -0.0000,1.6736 1.3567,3.0303 3.0303 3.0303h 24.2424 c 1.6736,0.0000 3.0303,-1.3567 3.0303 -3.0303Z"/></g><defs></defs><g stroke-linejoin="miter" stroke-opacity="1.0" fill-opacity="1.0" font-size="30.303030303030305px" stroke="rgb(0,0,0)" stroke-width="1.876166303929372" fill="rgb(0,0,0)" stroke-linecap="butt" stroke-miterlimit="10.0"><text dominant-baseline="middle" transform="matrix(1.0000,0.0000,0.0000,1.0000,189.3939,174.5455)" stroke="none" text-anchor="middle">A</text></g><defs></defs><g stroke-linejoin="miter" stroke-opacity="1.0" fill-opacity="1.0" stroke="rgb(0,0,0)" stroke-width="2.0" fill="rgb(128,128,128)" stroke-linecap="butt" stroke-miterlimit="10.0"><path d="M 250.0000,144.2424 v -30.3030 c 0.0000,-1.6736 -1.3567,-3.0303 -3.0303 -3.0303h -24.2424 c -1.6736,-0.0000 -3.0303,1.3567 -3.0303 3.0303v 30.3030 c -0.0000,1.6736 1.3567,3.0303 3.0303 3.0303h 24.2424 c 1.6736,0.0000 3.0303,-1.3567 3.0303 -3.0303Z"/></g><defs></defs><g stroke-linejoin="miter" stroke-opacity="1.0" fill-opacity="1.0" font-size="30.303030303030305px" stroke="rgb(0,0,0)" stroke-width="1.876166303929372" fill="rgb(0,0,0)" stroke-linecap="butt" stroke-miterlimit="10.0"><text dominant-baseline="middle" transform="matrix(1.0000,0.0000,0.0000,1.0000,234.8485,129.0909)" stroke="none" text-anchor="middle">B</text></g><defs></defs><g stroke-linejoin="miter" stroke-opacity="1.0" fill-opacity="1.0" stroke="rgb(0,0,0)" stroke-width="2.0" fill="rgb(128,128,128)" stroke-linecap="butt" stroke-miterlimit="10.0"><path d="M 159.0909,144.2424 v -30.3030 c 0.0000,-1.6736 -1.3567,-3.0303 -3.0303 -3.0303h -24.2424 c -1.6736,-0.0000 -3.0303,1.3567 -3.0303 3.0303v 30.3030 c -0.0000,1.6736 1.3567,3.0303 3.0303 3.0303h 24.2424 c 1.6736,0.0000 3.0303,-1.3567 3.0303 -3.0303Z"/></g><defs></defs><g stroke-linejoin="miter" stroke-opacity="1.0" fill-opacity="1.0" font-size="30.303030303030305px" stroke="rgb(0,0,0)" stroke-width="1.876166303929372" fill="rgb(0,0,0)" stroke-linecap="butt" stroke-miterlimit="10.0"><text dominant-baseline="middle" transform="matrix(1.0000,0.0000,0.0000,1.0000,143.9394,129.0909)" stroke="none" text-anchor="middle">+</text></g><defs></defs><g stroke-linejoin="miter" stroke-opacity="1.0" fill-opacity="0.0" stroke="rgb(0,0,0)" stroke-width="1.876166303929372" fill="rgb(0,0,0)" stroke-linecap="butt" stroke-miterlimit="10.0"><path d="M 53.0303,129.0909 v 45.4545 "/></g><defs></defs><g stroke-linejoin="miter" stroke-opacity="1.0" fill-opacity="1.0" stroke="rgb(0,0,0)" stroke-width="2.0" fill="rgb(128,128,128)" stroke-linecap="butt" stroke-miterlimit="10.0"><path d="M 83.3333,189.6970 v -30.3030 c 0.0000,-1.6736 -1.3567,-3.0303 -3.0303 -3.0303h -54.5455 c -1.6736,-0.0000 -3.0303,1.3567 -3.0303 3.0303v 30.3030 c -0.0000,1.6736 1.3567,3.0303 3.0303 3.0303h 54.5455 c 1.6736,0.0000 3.0303,-1.3567 3.0303 -3.0303Z"/></g><defs></defs><g stroke-linejoin="miter" stroke-opacity="1.0" fill-opacity="1.0" font-size="30.303030303030305px" stroke="rgb(0,0,0)" stroke-width="1.876166303929372" fill="rgb(0,0,0)" stroke-linecap="butt" stroke-miterlimit="10.0"><text dominant-baseline="middle" transform="matrix(1.0000,0.0000,0.0000,1.0000,53.0303,174.5455)" stroke="none" text-anchor="middle">22</text></g><defs></defs><g stroke-linejoin="miter" stroke-opacity="1.0" fill-opacity="1.0" stroke="rgb(0,0,0)" stroke-width="2.0" fill="rgb(128,128,128)" stroke-linecap="butt" stroke-miterlimit="10.0"><path d="M 68.1818,144.2424 v -30.3030 c 0.0000,-1.6736 -1.3567,-3.0303 -3.0303 -3.0303h -24.2424 c -1.6736,-0.0000 -3.0303,1.3567 -3.0303 3.0303v 30.3030 c -0.0000,1.6736 1.3567,3.0303 3.0303 3.0303h 24.2424 c 1.6736,0.0000 3.0303,-1.3567 3.0303 -3.0303Z"/></g><defs></defs><g stroke-linejoin="miter" stroke-opacity="1.0" fill-opacity="1.0" font-size="30.303030303030305px" stroke="rgb(0,0,0)" stroke-width="1.876166303929372" fill="rgb(0,0,0)" stroke-linecap="butt" stroke-miterlimit="10.0"><text dominant-baseline="middle" transform="matrix(1.0000,0.0000,0.0000,1.0000,53.0303,129.0909)" stroke="none" text-anchor="middle">A</text></g><defs></defs><g stroke-linejoin="miter" stroke-opacity="1.0" fill-opacity="1.0" stroke="rgb(0,0,0)" stroke-width="2.0" fill="rgb(128,128,128)" stroke-linecap="butt" stroke-miterlimit="10.0"><path d="M 159.0909,98.7879 v -30.3030 c 0.0000,-1.6736 -1.3567,-3.0303 -3.0303 -3.0303h -24.2424 c -1.6736,-0.0000 -3.0303,1.3567 -3.0303 3.0303v 30.3030 c -0.0000,1.6736 1.3567,3.0303 3.0303 3.0303h 24.2424 c 1.6736,0.0000 3.0303,-1.3567 3.0303 -3.0303Z"/></g><defs></defs><g stroke-linejoin="miter" stroke-opacity="1.0" fill-opacity="1.0" font-size="30.303030303030305px" stroke="rgb(0,0,0)" stroke-width="1.876166303929372" fill="rgb(0,0,0)" stroke-linecap="butt" stroke-miterlimit="10.0"><text dominant-baseline="middle" transform="matrix(1.0000,0.0000,0.0000,1.0000,143.9394,83.6364)" stroke="none" text-anchor="middle">B</text></g><defs></defs><g stroke-linejoin="miter" stroke-opacity="1.0" fill-opacity="1.0" stroke="rgb(0,0,0)" stroke-width="2.0" fill="rgb(128,128,128)" stroke-linecap="butt" stroke-miterlimit="10.0"><path d="M 68.1818,98.7879 v -30.3030 c 0.0000,-1.6736 -1.3567,-3.0303 -3.0303 -3.0303h -24.2424 c -1.6736,-0.0000 -3.0303,1.3567 -3.0303 3.0303v 30.3030 c -0.0000,1.6736 1.3567,3.0303 3.0303 3.0303h 24.2424 c 1.6736,0.0000 3.0303,-1.3567 3.0303 -3.0303Z"/></g><defs></defs><g stroke-linejoin="miter" stroke-opacity="1.0" fill-opacity="1.0" font-size="30.303030303030305px" stroke="rgb(0,0,0)" stroke-width="1.876166303929372" fill="rgb(0,0,0)" stroke-linecap="butt" stroke-miterlimit="10.0"><text dominant-baseline="middle" transform="matrix(1.0000,0.0000,0.0000,1.0000,53.0303,83.6364)" stroke="none" text-anchor="middle">1</text></g><defs></defs><g stroke-linejoin="miter" stroke-opacity="1.0" fill-opacity="1.0" stroke="rgb(0,0,0)" stroke-width="2.0" fill="rgb(128,128,128)" stroke-linecap="butt" stroke-miterlimit="10.0"><path d="M 113.6364,53.3333 v -30.3030 c 0.0000,-1.6736 -1.3567,-3.0303 -3.0303 -3.0303h -24.2424 c -1.6736,-0.0000 -3.0303,1.3567 -3.0303 3.0303v 30.3030 c -0.0000,1.6736 1.3567,3.0303 3.0303 3.0303h 24.2424 c 1.6736,0.0000 3.0303,-1.3567 3.0303 -3.0303Z"/></g><defs></defs><g stroke-linejoin="miter" stroke-opacity="1.0" fill-opacity="1.0" font-size="30.303030303030305px" stroke="rgb(0,0,0)" stroke-width="1.876166303929372" fill="rgb(0,0,0)" stroke-linecap="butt" stroke-miterlimit="10.0"><text dominant-baseline="middle" transform="matrix(1.0000,0.0000,0.0000,1.0000,98.4848,38.1818)" stroke="none" text-anchor="middle">A</text></g></svg>